<svg width="40" height="40" viewBox="0 0 40 40" fill="none" xmlns="http://www.w3.org/2000/svg">
<path d="M8.2137 33.4552C9.30103 30.8935 11.8397 29.0968 14.798 29.0968H25.5224C28.4807 29.0968 31.0194 30.8935 32.1067 33.4552M27.3098 15.6912C27.3098 19.6398 24.1088 22.8408 20.1602 22.8408C16.2116 22.8408 13.0106 19.6398 13.0106 15.6912C13.0106 11.7426 16.2116 8.54157 20.1602 8.54157C24.1088 8.54157 27.3098 11.7426 27.3098 15.6912ZM38.0343 20.1597C38.0343 30.0313 30.0318 38.0338 20.1602 38.0338C10.2886 38.0338 2.28613 30.0313 2.28613 20.1597C2.28613 10.2881 10.2886 2.28564 20.1602 2.28564C30.0318 2.28564 38.0343 10.2881 38.0343 20.1597Z" stroke="#BDBDBD" stroke-width="3" stroke-linecap="round" stroke-linejoin="round"/>
</svg>
