<svg width="40" height="40" viewBox="0 0 40 40" fill="none" xmlns="http://www.w3.org/2000/svg">
<path d="M7.92757 33.1695C9.0149 30.6078 11.5536 28.8111 14.5119 28.8111H25.2363C28.1946 28.8111 30.7332 30.6078 31.8206 33.1695M27.0237 15.4056C27.0237 19.3542 23.8227 22.5552 19.8741 22.5552C15.9254 22.5552 12.7244 19.3542 12.7244 15.4056C12.7244 11.4569 15.9254 8.25593 19.8741 8.25593C23.8227 8.25593 27.0237 11.4569 27.0237 15.4056ZM37.7482 19.8741C37.7482 29.7457 29.7457 37.7482 19.8741 37.7482C10.0025 37.7482 2 29.7457 2 19.8741C2 10.0025 10.0025 2 19.8741 2C29.7457 2 37.7482 10.0025 37.7482 19.8741Z" stroke="#BDBDBD" stroke-width="3" stroke-linecap="round" stroke-linejoin="round"/>
</svg>
