<svg width="36" height="38" viewBox="0 0 36 38" fill="none" xmlns="http://www.w3.org/2000/svg">
<path d="M2 17.1179C2 16.0913 2 15.578 2.13232 15.1053C2.24952 14.6866 2.44214 14.2927 2.70071 13.9431C2.99261 13.5485 3.39779 13.2333 4.20815 12.6031L16.3309 3.17426C16.9589 2.68585 17.2728 2.44164 17.6195 2.34777C17.9255 2.26494 18.2479 2.26494 18.5538 2.34777C18.9005 2.44164 19.2145 2.68585 19.8424 3.17426L31.9652 12.6031C32.7755 13.2333 33.1807 13.5485 33.4726 13.9431C33.7312 14.2927 33.9238 14.6866 34.041 15.1053C34.1733 15.578 34.1733 16.0913 34.1733 17.1179V30.0497C34.1733 32.0518 34.1733 33.0528 33.7837 33.8175C33.441 34.4902 32.8941 35.037 32.2215 35.3798C31.4568 35.7694 30.4557 35.7694 28.4536 35.7694H23.9851H18.0867H12.1882H7.7197C5.71762 35.7694 4.71658 35.7694 3.95188 35.3798C3.27924 35.037 2.73236 34.4902 2.38963 33.8175C2 33.0528 2 32.0518 2 30.0497V17.1179Z" fill="#7D4BFF"/>
<path d="M12.1882 35.7694H7.7197C5.71762 35.7694 4.71658 35.7694 3.95188 35.3798C3.27924 35.037 2.73236 34.4902 2.38963 33.8175C2 33.0528 2 32.0518 2 30.0497V17.1179C2 16.0913 2 15.578 2.13232 15.1053C2.24952 14.6866 2.44214 14.2927 2.70071 13.9431C2.99261 13.5485 3.39779 13.2333 4.20815 12.6031L16.3309 3.17426C16.9589 2.68585 17.2728 2.44164 17.6195 2.34777C17.9255 2.26494 18.2479 2.26494 18.5538 2.34777C18.9005 2.44164 19.2145 2.68585 19.8424 3.17426L31.9652 12.6031C32.7755 13.2333 33.1807 13.5485 33.4726 13.9431C33.7312 14.2927 33.9238 14.6866 34.041 15.1053C34.1733 15.578 34.1733 16.0913 34.1733 17.1179V30.0497C34.1733 32.0518 34.1733 33.0528 33.7837 33.8175C33.441 34.4902 32.8941 35.037 32.2215 35.3798C31.4568 35.7694 30.4557 35.7694 28.4536 35.7694H23.9851M12.1882 35.7694V22.3639H23.9851V35.7694M12.1882 35.7694H18.0867H23.9851" stroke="#7D4BFF" stroke-width="3" stroke-linecap="round" stroke-linejoin="round"/>
<path d="M13 28C13 26.8954 13.8954 26 15 26H21C22.1046 26 23 26.8954 23 28V38H13V28Z" fill="white"/>
</svg>
