<svg width="36" height="38" viewBox="0 0 36 38" fill="none" xmlns="http://www.w3.org/2000/svg">
<path d="M12.0456 35.7694H7.57713C5.57504 35.7694 4.574 35.7694 3.8093 35.3798C3.13666 35.037 2.58978 34.4902 2.24705 33.8175C1.85742 33.0528 1.85742 32.0518 1.85742 30.0497V17.1179C1.85742 16.0913 1.85742 15.578 1.98974 15.1053C2.10695 14.6866 2.29957 14.2927 2.55813 13.9431C2.85004 13.5485 3.25521 13.2333 4.06557 12.6031L16.1883 3.17426C16.8163 2.68585 17.1303 2.44164 17.477 2.34777C17.7829 2.26494 18.1053 2.26494 18.4112 2.34777C18.7579 2.44164 19.0719 2.68585 19.6999 3.17426L31.8226 12.6031C32.633 13.2333 33.0381 13.5485 33.33 13.9431C33.5886 14.2927 33.7812 14.6866 33.8984 15.1053C34.0308 15.578 34.0308 16.0913 34.0308 17.1179V30.0497C34.0308 32.0518 34.0308 33.0528 33.6411 33.8175C33.2984 34.4902 32.7515 35.037 32.0789 35.3798C31.3142 35.7694 30.3131 35.7694 28.3111 35.7694H23.8425M12.0456 35.7694V22.3639H23.8425V35.7694M12.0456 35.7694H23.8425" stroke="#BDBDBD" stroke-width="3" stroke-linecap="round" stroke-linejoin="round"/>
</svg>
